<svg xmlns="http://www.w3.org/2000/svg" viewBox="0 0 623.85 720.35"><defs><style>.cls-1{stroke:#000;stroke-miterlimit:10;stroke-width:15px;}</style></defs><title>Asset 1</title><g id="Layer_2" data-name="Layer 2"><g id="Layer_1-2" data-name="Layer 1"><path class="cls-1" d="M311.92,24.9,602.28,192.54V527.82L311.92,695.46,21.56,527.82V192.54L311.92,24.9m0-16.24L7.5,184.42V535.94L311.92,711.69,616.35,535.94V184.42L311.92,8.66Z"/><polygon class="cls-1" points="76.92 359.3 12.52 197.21 23.15 188.97 89.95 354.02 76.92 359.3"/><polygon class="cls-1" points="89.27 360.58 78.97 350.79 303.44 16.44 318.33 20.22 89.27 360.58"/><polygon class="cls-1" points="85.58 363.36 81.29 349.96 602.64 184.11 606.93 197.5 85.58 363.36"/><rect class="cls-1" x="218.58" y="279.07" width="14.06" height="338.1" transform="translate(-273.32 395.43) rotate(-57.25)"/><polygon class="cls-1" points="300.49 701.68 81.04 364.08 89.33 352.82 314.46 697.91 300.49 701.68"/><polygon class="cls-1" points="21.9 531.83 12.22 522.1 77.46 353.38 90.53 358.56 21.9 531.83"/><rect class="cls-1" x="277.01" y="359.73" width="419.78" height="14.07" transform="translate(-91.55 559.07) rotate(-55.38)"/><polygon class="cls-1" points="323.53 700.5 307.79 700.8 361.1 537.4 374.47 541.76 323.53 700.5"/><polygon class="cls-1" points="367.98 546.6 367.59 532.55 604.72 525.95 597.63 538.05 367.98 546.6"/></g></g></svg>